<mxfile host="65bd71144e">
    <diagram id="2PcdBxQXiVzwEtzM-d3n" name="Page-1">
        <mxGraphModel dx="1336" dy="454" grid="1" gridSize="10" guides="1" tooltips="1" connect="1" arrows="1" fold="1" page="1" pageScale="1" pageWidth="1169" pageHeight="827" math="0" shadow="0">
            <root>
                <mxCell id="0"/>
                <mxCell id="1" parent="0"/>
                <mxCell id="2" value="function [V type1 | type2 | ... | type n](x V) {}" style="rounded=0;whiteSpace=wrap;html=1;shadow=1;fillColor=#1ba1e2;fontColor=#ffffff;strokeColor=#006EAF;" vertex="1" parent="1">
                    <mxGeometry x="360" y="160" width="260" height="60" as="geometry"/>
                </mxCell>
                <mxCell id="7" style="edgeStyle=none;html=1;entryX=0.5;entryY=0;entryDx=0;entryDy=0;fontFamily=Helvetica;fontSize=12;fontColor=#ffffff;exitX=0;exitY=0.5;exitDx=0;exitDy=0;" edge="1" parent="1" source="3" target="2">
                    <mxGeometry relative="1" as="geometry"/>
                </mxCell>
                <mxCell id="3" value="int" style="rounded=0;whiteSpace=wrap;html=1;shadow=1;fillColor=#e51400;strokeColor=#B20000;glass=0;fontColor=#ffffff;" vertex="1" parent="1">
                    <mxGeometry x="640" y="90" width="90" height="50" as="geometry"/>
                </mxCell>
                <mxCell id="8" style="edgeStyle=none;html=1;entryX=0.5;entryY=0;entryDx=0;entryDy=0;fontFamily=Helvetica;fontSize=12;fontColor=#ffffff;exitX=0.5;exitY=1;exitDx=0;exitDy=0;" edge="1" parent="1" source="4" target="2">
                    <mxGeometry relative="1" as="geometry"/>
                </mxCell>
                <mxCell id="4" value="float64" style="rounded=0;whiteSpace=wrap;html=1;shadow=1;fillColor=#f0a30a;fontColor=#000000;strokeColor=#BD7000;" vertex="1" parent="1">
                    <mxGeometry x="490" y="60" width="90" height="50" as="geometry"/>
                </mxCell>
                <mxCell id="6" style="edgeStyle=none;html=1;entryX=0.5;entryY=1;entryDx=0;entryDy=0;fontFamily=Helvetica;fontSize=12;fontColor=#ffffff;exitX=1;exitY=0.5;exitDx=0;exitDy=0;" edge="1" parent="1" source="5" target="2">
                    <mxGeometry relative="1" as="geometry"/>
                </mxCell>
                <mxCell id="5" value="interface" style="rounded=0;whiteSpace=wrap;html=1;shadow=1;fillColor=#60a917;fontColor=#ffffff;strokeColor=#2D7600;" vertex="1" parent="1">
                    <mxGeometry x="290" y="240" width="90" height="50" as="geometry"/>
                </mxCell>
                <mxCell id="15" value="" style="edgeStyle=none;html=1;fontFamily=Helvetica;fontSize=12;fontColor=#ffffff;exitX=1;exitY=0.5;exitDx=0;exitDy=0;entryX=0;entryY=0.5;entryDx=0;entryDy=0;" edge="1" parent="1" source="9" target="14">
                    <mxGeometry relative="1" as="geometry"/>
                </mxCell>
                <mxCell id="18" style="edgeStyle=none;html=1;entryX=0;entryY=0.5;entryDx=0;entryDy=0;fontFamily=Helvetica;fontSize=12;fontColor=#ffffff;" edge="1" parent="1" source="9" target="16">
                    <mxGeometry relative="1" as="geometry"/>
                </mxCell>
                <mxCell id="19" style="edgeStyle=none;html=1;entryX=0;entryY=0.5;entryDx=0;entryDy=0;fontFamily=Helvetica;fontSize=12;fontColor=#ffffff;exitX=1;exitY=0.5;exitDx=0;exitDy=0;dashed=1;" edge="1" parent="1" source="9" target="17">
                    <mxGeometry relative="1" as="geometry"/>
                </mxCell>
                <mxCell id="9" value="interface" style="rounded=0;whiteSpace=wrap;html=1;shadow=1;fillColor=#1ba1e2;fontColor=#ffffff;strokeColor=#006EAF;" vertex="1" parent="1">
                    <mxGeometry x="680" y="440" width="140" height="60" as="geometry"/>
                </mxCell>
                <mxCell id="12" style="edgeStyle=none;html=1;entryX=0;entryY=0.5;entryDx=0;entryDy=0;fontFamily=Helvetica;fontSize=12;fontColor=#ffffff;exitX=0.5;exitY=1;exitDx=0;exitDy=0;" edge="1" parent="1" source="10" target="9">
                    <mxGeometry relative="1" as="geometry"/>
                </mxCell>
                <mxCell id="10" value="type Game struct {}" style="rounded=0;whiteSpace=wrap;html=1;shadow=1;fillColor=#e51400;strokeColor=#B20000;glass=0;fontColor=#ffffff;" vertex="1" parent="1">
                    <mxGeometry x="490" y="360" width="120" height="50" as="geometry"/>
                </mxCell>
                <mxCell id="13" style="edgeStyle=none;html=1;exitX=0.5;exitY=0;exitDx=0;exitDy=0;entryX=0;entryY=0.5;entryDx=0;entryDy=0;fontFamily=Helvetica;fontSize=12;fontColor=#ffffff;" edge="1" parent="1" source="11" target="9">
                    <mxGeometry relative="1" as="geometry"/>
                </mxCell>
                <mxCell id="11" value="&lt;span style=&quot;color: rgb(255 , 255 , 255)&quot;&gt;type Movie struct {}&lt;/span&gt;" style="rounded=0;whiteSpace=wrap;html=1;shadow=1;fillColor=#f0a30a;fontColor=#000000;strokeColor=#BD7000;" vertex="1" parent="1">
                    <mxGeometry x="490" y="530" width="130" height="50" as="geometry"/>
                </mxCell>
                <mxCell id="14" value="method1()" style="rounded=0;whiteSpace=wrap;html=1;shadow=1;fillColor=#60a917;fontColor=#ffffff;strokeColor=#2D7600;" vertex="1" parent="1">
                    <mxGeometry x="890" y="330" width="140" height="60" as="geometry"/>
                </mxCell>
                <mxCell id="16" value="method2()" style="rounded=0;whiteSpace=wrap;html=1;shadow=1;fillColor=#60a917;fontColor=#ffffff;strokeColor=#2D7600;" vertex="1" parent="1">
                    <mxGeometry x="890" y="440" width="140" height="60" as="geometry"/>
                </mxCell>
                <mxCell id="17" value="methodn()" style="rounded=0;whiteSpace=wrap;html=1;shadow=1;fillColor=#60a917;fontColor=#ffffff;strokeColor=#2D7600;" vertex="1" parent="1">
                    <mxGeometry x="890" y="550" width="140" height="60" as="geometry"/>
                </mxCell>
            </root>
        </mxGraphModel>
    </diagram>
</mxfile>